<svg id="Camada_2" data-name="Camada 2" xmlns="http://www.w3.org/2000/svg" viewBox="0 0 294 157.36" ><defs><style>.cls-1{fill:#cecece;}</style></defs><path class="cls-1" d="M276.08,339.79a7.17,7.17,0,0,1,4.68,1.72L300,357.87a7.31,7.31,0,0,0,4.73,1.74,7.24,7.24,0,0,0,2.7-.52c11.32-4.51,23.13-8.36,35-8.36a47.29,47.29,0,0,1,24.32,6.49c11.45,6.68,22.51,16.76,29.33,28,15,24.66,8.26,56.24-13.21,75.34a63,63,0,0,1-77.28,5.33C278.66,447.76,272.08,420.22,286,380a7.1,7.1,0,0,0-1.43-7.08c-5.56-6.17-10.79-12-16.34-18.13a7.1,7.1,0,0,1-.29-9.16l2.49-3.14a7.21,7.21,0,0,1,5.66-2.73m0-6a13.15,13.15,0,0,0-10.36,5l-2.49,3.14a13,13,0,0,0,.54,16.91l10.45,11.6L280.1,377a1.09,1.09,0,0,1,.22,1.09c-14.74,42.61-7.58,72.95,21.89,92.77A69,69,0,0,0,386.83,465c24.37-21.68,30.4-56.56,14.35-82.94-7-11.52-18.47-22.46-31.44-30a53.58,53.58,0,0,0-27.34-7.31c-13.35,0-26.3,4.44-37.2,8.79a1.28,1.28,0,0,1-.48.09,1.33,1.33,0,0,1-.85-.31L299,349.16l-14.36-12.22a13.25,13.25,0,0,0-8.57-3.15Z" transform="translate(-260.38 -333.79)"/><path class="cls-1" d="M538.8,339.79a7.21,7.21,0,0,1,5.75,2.84l2.38,3.12a7.1,7.1,0,0,1-.37,9.05l-16.34,18.13a7.1,7.1,0,0,0-1.2,7.67c8.12,18.15,13.27,37.77,3.17,56.77-6.2,11.66-16,23-27.05,30.26A56.71,56.71,0,0,1,473.75,477a63.26,63.26,0,0,1-46.67-21.09c-18.85-20.95-21.24-53.87-5.59-77,12-17.71,28.33-26.61,49.67-26.61q16.32,0,36.6,7a7.32,7.32,0,0,0,2.34.39,7.24,7.24,0,0,0,4.68-1.71l19.36-16.38a7.2,7.2,0,0,1,4.66-1.71m0-6a13.24,13.24,0,0,0-8.54,3.13l-14.77,12.5-4.58,3.88a1.29,1.29,0,0,1-.81.29,1.47,1.47,0,0,1-.41-.07c-14.08-4.83-27.05-7.28-38.53-7.28-23.15,0-41.53,9.84-54.64,29.25a68.48,68.48,0,0,0-11.16,43.15A68.83,68.83,0,0,0,473.75,483a62.78,62.78,0,0,0,34.69-10.34c11.53-7.6,22.12-19.43,29.05-32.45,11.92-22.42,4.66-44.93-3-62a1.09,1.09,0,0,1,.17-1.2l6.66-7.38L551,358.81a13.09,13.09,0,0,0,.68-16.7L549.32,339a13.12,13.12,0,0,0-10.52-5.2Z" transform="translate(-260.38 -333.79)"/><path class="cls-1" d="M413.17,488.68l7.36-8.4a7.08,7.08,0,0,0-.69-10l-8.2-7.11a7.22,7.22,0,0,0-10.11.65l-7.23,8.08a7.08,7.08,0,0,0,.49,9.94l8.08,7.42A7.2,7.2,0,0,0,413.17,488.68Z" transform="translate(-260.38 -333.79)"/><path class="cls-1" d="M341.08,377.38h.39a36.86,36.86,0,0,1,25.8,11.38,36.13,36.13,0,0,1,10.38,25.6c-.19,9-4.39,18.26-11.51,25.31s-16.22,11-25,11l-.91,0c-19.61-.6-36.65-18.21-36.46-37.68A35,35,0,0,1,315,388.06a38.2,38.2,0,0,1,26.13-10.68m0-6c-23.18,0-43.13,19.08-43.35,41.57s19.49,43,42.28,43.74l1.09,0c21.77,0,42.07-20,42.55-42.22.49-22.89-19-42.86-42.12-43.11Z" transform="translate(-260.38 -333.79)"/><path class="cls-1" d="M473.94,377.29h0c1,0,2,0,2.95.12a36.61,36.61,0,0,1,24.88,12.93,35.78,35.78,0,0,1,8.82,26.33,37.1,37.1,0,0,1-12,24c-6.83,6.37-15.59,10-24.05,10a31.81,31.81,0,0,1-3.24-.17,38,38,0,0,1-25-13.26,37.07,37.07,0,0,1-8.79-26.55A35.29,35.29,0,0,1,449.12,387a36.76,36.76,0,0,1,24.82-9.71m0-6c-21.94,0-40.91,17.1-42.39,39-1.56,23.2,15.73,43.63,39.09,46.18a36.35,36.35,0,0,0,3.89.21c20.78,0,40.26-17.85,42-39.51,1.88-22.83-16.13-43.85-39.19-45.73-1.15-.09-2.3-.14-3.44-.14Z" transform="translate(-260.38 -333.79)"/></svg>