<svg id="Camada_1" data-name="Camada 1" xmlns="http://www.w3.org/2000/svg" viewBox="0 0 172.28 16.21"><defs><style>.cls-1{fill:#fff;}</style></defs><path class="cls-1" d="M224.74,71.48c-3.58-.68-7.1.53-10.4,1.88-7.73.88-15.56.77-23.33,1.14-4.41.21-8.8.65-13.22.81-5.17.2-10.34.19-15.51.11-10.47-.18-20.94-.7-31.41-.67s-20.8.93-31.2,1.18c-5.76.14-11.52.07-17.28.21-4.6.11-9.21.43-13.81.18-3.56-1.48-7.4-3-11.31-2.25-2.47.48-3.42,3.32-1,4.61a8.43,8.43,0,0,0,6.2.49,30,30,0,0,0,3.5-.91,11.84,11.84,0,0,0,1.52-.81A78.14,78.14,0,0,0,80,77.81c5.1-.11,10.19,0,15.29-.12,10.5-.17,21-1,31.47-1.21s20.95.31,31.42.56c5.17.12,10.35.19,15.53.09,4.89-.1,9.75-.46,14.62-.78,8.75-.57,17.56-.3,26.27-1.32l.13,0a9.27,9.27,0,0,0,1.28.67,30,30,0,0,0,3.5.91,8.43,8.43,0,0,0,6.2-.49C228.16,74.81,227.21,72,224.74,71.48Z" transform="translate(-54.87 -66.92)"/><path class="cls-1" d="M214.23,74.33l.45,1.2c.41,1.92,4,8.53,6.49,5.12C223.23,77.83,216.07,75,214.23,74.33Z" transform="translate(-54.87 -66.92)"/><path class="cls-1" d="M207.46,75.41l.55.9c.63,1.51,4.56,6.32,6.06,3.17C215.31,76.88,209.05,75.64,207.46,75.41Z" transform="translate(-54.87 -66.92)"/><path class="cls-1" d="M220,67.69c-2.89-3.07-5.63,3.93-5.81,5.89l-.29,1.25C215.6,74,222.34,70.23,220,67.69Z" transform="translate(-54.87 -66.92)"/><path class="cls-1" d="M214.07,69.93c-1.5-3.15-5.43,1.67-6.06,3.17l-.55.91C209.05,73.77,215.31,72.54,214.07,69.93Z" transform="translate(-54.87 -66.92)"/><path class="cls-1" d="M61,81.87c1.81,3.81,6.56-2,7.33-3.84L69,76.94C67,77.22,59.48,78.72,61,81.87Z" transform="translate(-54.87 -66.92)"/><path class="cls-1" d="M67.72,81.82c1.5,3.15,5.43-1.67,6.06-3.17l.55-.91C72.73,78,66.48,79.21,67.72,81.82Z" transform="translate(-54.87 -66.92)"/><path class="cls-1" d="M69,76.64l-.66-1.1c-.77-1.82-5.52-7.64-7.33-3.84C59.48,74.86,67,76.35,69,76.64Z" transform="translate(-54.87 -66.92)"/><path class="cls-1" d="M74.33,76.41l-.55-.91c-.63-1.5-4.56-6.32-6.06-3.17C66.48,74.94,72.73,76.17,74.33,76.41Z" transform="translate(-54.87 -66.92)"/></svg>